%
M48
M72
T01C0.02756
T02C0.03200
T03C0.03543
T04C0.03600
T05C0.03622
T06C0.03800
T07C0.03937
T08C0.04000
T09C0.06000
T10C0.07874
T11C0.10000
T12C0.11024
%
T01
X54300Y209300
X64300Y271800
X84300Y211800
T02
X84300Y234300
X84300Y244300
X84300Y254300
X84300Y264300
X79300Y281800
X76800Y294300
X76800Y306800
X61800Y306800
X61800Y294300
X59300Y281800
X54300Y264300
X54300Y254300
X54300Y244300
X54300Y234300
X54300Y219300
X41800Y214300
X41800Y224300
X36800Y241800
X36800Y251800
X31800Y264300
X31800Y274300
X31800Y294300
X31800Y306800
X24300Y251800
X24300Y231800
X24300Y499300
X24300Y529300
X24300Y671800
X24300Y701800
X101800Y244300
X101800Y234300
X106800Y266800
X106800Y276800
X106800Y294300
X106800Y306800
X114300Y254300
X114300Y234300
X94300Y221800
X94300Y211800
X74300Y219300
X109300Y619300
X109300Y649300
X106800Y661800
X106800Y671800
T03
X106800Y381800
X101800Y381800
X96800Y381800
X91800Y381800
X86800Y381800
X81800Y381800
X76800Y381800
X71800Y381800
X66800Y381800
X61800Y381800
X56800Y381800
X51800Y381800
X46800Y381800
X41800Y381800
X36800Y381800
X31800Y381800
X26800Y381800
X21800Y381800
X16800Y381800
X111800Y381800
X116800Y381800
X121800Y381800
T04
X76800Y196800
X66800Y196800
T05
X62863Y434379
X62863Y444221
X70737Y444221
X70737Y434379
T06
X96800Y176800
X96800Y166800
X96800Y156800
X96800Y146800
X96800Y136800
X96800Y126800
X96800Y116800
X96800Y106800
X96800Y96800
X96800Y86800
X96800Y76800
X96800Y66800
X96800Y56800
X96800Y46800
X86800Y46800
X76800Y46800
X66800Y46800
X56800Y46800
X46800Y46800
X36800Y46800
X36800Y56800
X36800Y66800
X36800Y76800
X36800Y86800
X36800Y96800
X36800Y106800
X36800Y116800
X36800Y126800
X36800Y136800
X36800Y146800
X36800Y156800
X36800Y166800
X36800Y176800
T07
X31800Y331800
X31800Y341800
X41800Y341800
X41800Y331800
X51800Y331800
X51800Y341800
X61800Y341800
X61800Y331800
X71800Y331800
X71800Y341800
X81800Y341800
X81800Y331800
X91800Y331800
X91800Y341800
X101800Y341800
X101800Y331800
T08
X24300Y56800
X24300Y66800
X24300Y76800
X24300Y86800
X24300Y181800
X24300Y191800
X24300Y201800
X24300Y211800
X24300Y549300
X24300Y559300
X24300Y569300
X24300Y579300
X109300Y579300
X109300Y569300
X109300Y559300
X109300Y549300
X109300Y209300
X109300Y199300
X109300Y189300
X109300Y179300
T09
X86800Y506800
X86800Y566800
X86800Y631800
X86800Y691800
T10
X66800Y462331
X87076Y455048
X87076Y423552
X46524Y423552
X46524Y455048
T11
X46800Y506800
X46800Y566800
X46800Y631800
X46800Y691800
X66800Y676800
X66800Y651800
X66800Y616800
X66800Y586800
X66800Y551800
X66800Y526800
X66800Y491800
X66800Y711800
T12
X86800Y736800
X46800Y736800
X66800Y401800
X46800Y364300
X89300Y364300
X66800Y29300
M30
