G75*
%MOIN*%
%OFA0B0*%
%FSLAX25Y25*%
%IPPOS*%
%LPD*%
%AMOC8*
5,1,8,0,0,1.08239X$1,22.5*
%
%ADD10C,0.04343*%
%ADD11C,0.11824*%
%ADD12R,0.09800X0.09800*%
%ADD13R,0.14800X0.14800*%
%ADD14OC8,0.06000*%
%ADD15C,0.06800*%
%ADD16C,0.06737*%
%ADD17OC8,0.07100*%
%ADD18C,0.07100*%
%ADD19C,0.06000*%
%ADD20C,0.06600*%
%ADD21C,0.12611*%
%ADD22C,0.06422*%
%ADD23R,0.06422X0.06422*%
%ADD24C,0.08674*%
%ADD25C,0.05156*%
D10*
X0016800Y0381800D03*
X0021800Y0381800D03*
X0026800Y0381800D03*
X0031800Y0381800D03*
X0036800Y0381800D03*
X0041800Y0381800D03*
X0046800Y0381800D03*
X0051800Y0381800D03*
X0056800Y0381800D03*
X0061800Y0381800D03*
X0066800Y0381800D03*
X0071800Y0381800D03*
X0076800Y0381800D03*
X0081800Y0381800D03*
X0086800Y0381800D03*
X0091800Y0381800D03*
X0096800Y0381800D03*
X0101800Y0381800D03*
X0106800Y0381800D03*
X0111800Y0381800D03*
X0116800Y0381800D03*
X0121800Y0381800D03*
D11*
X0089300Y0364300D03*
X0066800Y0401800D03*
X0046800Y0364300D03*
X0066800Y0029300D03*
X0046800Y0736800D03*
X0086800Y0736800D03*
D12*
X0086800Y0691800D03*
X0086800Y0631800D03*
X0086800Y0566800D03*
X0086800Y0506800D03*
D13*
X0066800Y0491800D03*
X0066800Y0526800D03*
X0066800Y0551800D03*
X0066800Y0586800D03*
X0066800Y0616800D03*
X0066800Y0651800D03*
X0066800Y0676800D03*
X0066800Y0711800D03*
X0046800Y0691800D03*
X0046800Y0631800D03*
X0046800Y0566800D03*
X0046800Y0506800D03*
D14*
X0024300Y0499300D03*
X0024300Y0529300D03*
X0024300Y0671800D03*
X0024300Y0701800D03*
X0059300Y0281800D03*
X0054300Y0219300D03*
X0041800Y0214300D03*
X0041800Y0224300D03*
X0036800Y0241800D03*
X0036800Y0251800D03*
X0024300Y0251800D03*
X0024300Y0231800D03*
X0074300Y0219300D03*
X0079300Y0281800D03*
X0094300Y0221800D03*
X0094300Y0211800D03*
X0101800Y0234300D03*
X0101800Y0244300D03*
X0114300Y0234300D03*
X0114300Y0254300D03*
X0109300Y0619300D03*
X0109300Y0649300D03*
X0106800Y0661800D03*
X0106800Y0671800D03*
D15*
X0027300Y0056800D02*
X0021300Y0056800D01*
X0021300Y0066800D02*
X0027300Y0066800D01*
X0027300Y0076800D02*
X0021300Y0076800D01*
X0021300Y0086800D02*
X0027300Y0086800D01*
X0027300Y0181800D02*
X0021300Y0181800D01*
X0021300Y0191800D02*
X0027300Y0191800D01*
X0027300Y0201800D02*
X0021300Y0201800D01*
X0021300Y0211800D02*
X0027300Y0211800D01*
X0027300Y0549300D02*
X0021300Y0549300D01*
X0021300Y0559300D02*
X0027300Y0559300D01*
X0027300Y0569300D02*
X0021300Y0569300D01*
X0021300Y0579300D02*
X0027300Y0579300D01*
X0106300Y0579300D02*
X0112300Y0579300D01*
X0112300Y0569300D02*
X0106300Y0569300D01*
X0106300Y0559300D02*
X0112300Y0559300D01*
X0112300Y0549300D02*
X0106300Y0549300D01*
X0106300Y0209300D02*
X0112300Y0209300D01*
X0112300Y0199300D02*
X0106300Y0199300D01*
X0106300Y0189300D02*
X0112300Y0189300D01*
X0112300Y0179300D02*
X0106300Y0179300D01*
D16*
X0101800Y0331800D03*
X0101800Y0341800D03*
X0091800Y0341800D03*
X0091800Y0331800D03*
X0081800Y0331800D03*
X0081800Y0341800D03*
X0071800Y0341800D03*
X0071800Y0331800D03*
X0061800Y0331800D03*
X0061800Y0341800D03*
X0051800Y0341800D03*
X0051800Y0331800D03*
X0041800Y0331800D03*
X0041800Y0341800D03*
X0031800Y0341800D03*
X0031800Y0331800D03*
D17*
X0031800Y0264300D03*
X0106800Y0276800D03*
D18*
X0106800Y0266800D03*
X0031800Y0274300D03*
D19*
X0029200Y0294300D02*
X0034400Y0294300D01*
X0034400Y0306800D02*
X0029200Y0306800D01*
X0049100Y0264300D02*
X0054300Y0264300D01*
X0054300Y0254300D02*
X0049100Y0254300D01*
X0049100Y0244300D02*
X0054300Y0244300D01*
X0054300Y0234300D02*
X0049100Y0234300D01*
X0059200Y0294300D02*
X0064400Y0294300D01*
X0064400Y0306800D02*
X0059200Y0306800D01*
X0074200Y0306800D02*
X0079400Y0306800D01*
X0079400Y0294300D02*
X0074200Y0294300D01*
X0084300Y0264300D02*
X0089500Y0264300D01*
X0089500Y0254300D02*
X0084300Y0254300D01*
X0084300Y0244300D02*
X0089500Y0244300D01*
X0089500Y0234300D02*
X0084300Y0234300D01*
X0104200Y0294300D02*
X0109400Y0294300D01*
X0109400Y0306800D02*
X0104200Y0306800D01*
D20*
X0096800Y0176800D03*
X0096800Y0166800D03*
X0096800Y0156800D03*
X0096800Y0146800D03*
X0096800Y0136800D03*
X0096800Y0126800D03*
X0096800Y0116800D03*
X0096800Y0106800D03*
X0096800Y0096800D03*
X0096800Y0086800D03*
X0096800Y0076800D03*
X0096800Y0066800D03*
X0096800Y0056800D03*
X0096800Y0046800D03*
X0086800Y0046800D03*
X0076800Y0046800D03*
X0066800Y0046800D03*
X0056800Y0046800D03*
X0046800Y0046800D03*
X0036800Y0046800D03*
X0036800Y0056800D03*
X0036800Y0066800D03*
X0036800Y0076800D03*
X0036800Y0086800D03*
X0036800Y0096800D03*
X0036800Y0106800D03*
X0036800Y0116800D03*
X0036800Y0126800D03*
X0036800Y0136800D03*
X0036800Y0146800D03*
X0036800Y0156800D03*
X0036800Y0166800D03*
X0036800Y0176800D03*
D21*
X0046524Y0423552D03*
X0046524Y0455048D03*
X0066800Y0462331D03*
X0087076Y0455048D03*
X0087076Y0423552D03*
D22*
X0070737Y0434379D03*
X0070737Y0444221D03*
X0062863Y0434379D03*
D23*
X0062863Y0444221D03*
D24*
X0066800Y0196800D03*
X0076800Y0196800D03*
D25*
X0084300Y0211800D03*
X0064300Y0271800D03*
X0054300Y0209300D03*
M02*
