G75*
%MOIN*%
%OFA0B0*%
%FSLAX25Y25*%
%IPPOS*%
%LPD*%
%AMOC8*
5,1,8,0,0,1.08239X$1,22.5*
%
%ADD10C,0.00000*%
D10*
X0033634Y0645966D02*
X0039933Y0645966D01*
X0039933Y0654234D01*
X0033634Y0654234D01*
X0033634Y0645966D01*
X0069067Y0645966D02*
X0075366Y0645966D01*
X0075366Y0654234D01*
X0069067Y0654234D01*
X0069067Y0645966D01*
X0098034Y0717566D02*
X0104333Y0717566D01*
X0104333Y0725834D01*
X0098034Y0725834D01*
X0098034Y0717566D01*
X0075866Y0796366D02*
X0069567Y0796366D01*
X0069567Y0804634D01*
X0075866Y0804634D01*
X0075866Y0796366D01*
X0040433Y0796366D02*
X0034134Y0796366D01*
X0034134Y0804634D01*
X0040433Y0804634D01*
X0040433Y0796366D01*
X0133467Y0725834D02*
X0133467Y0717566D01*
X0139766Y0717566D01*
X0139766Y0725834D01*
X0133467Y0725834D01*
X0159034Y0655234D02*
X0159034Y0646966D01*
X0165333Y0646966D01*
X0165333Y0655234D01*
X0159034Y0655234D01*
X0194467Y0655234D02*
X0194467Y0646966D01*
X0200766Y0646966D01*
X0200766Y0655234D01*
X0194467Y0655234D01*
X0195267Y0797766D02*
X0201566Y0797766D01*
X0201566Y0806034D01*
X0195267Y0806034D01*
X0195267Y0797766D01*
X0166133Y0797766D02*
X0159834Y0797766D01*
X0159834Y0806034D01*
X0166133Y0806034D01*
X0166133Y0797766D01*
M02*
