%
M48
M72
T01C0.02362
T02C0.02756
T03C0.03200
T04C0.03543
T05C0.03937
T06C0.04000
T07C0.04331
T08C0.06000
T09C0.06299
T10C0.07874
T11C0.10000
T12C0.11024
%
T01
X11000Y58500
X11000Y491000
X8500Y531000
X11000Y688500
X28500Y713500
X66000Y601000
X88500Y686000
X83500Y733500
X93500Y768500
X108500Y801000
X68500Y703500
X96000Y591000
X103500Y621000
X108500Y658500
X116000Y613500
X141000Y658500
X148500Y613500
X176000Y596000
X181000Y518500
X206000Y521000
X211000Y511000
X221000Y618500
X208500Y713500
X218500Y761000
X161000Y748500
X161000Y703500
X146000Y491000
X101000Y511000
X88500Y508500
X86000Y493500
T02
X96000Y378500
X101000Y338500
X128500Y261000
X141000Y318500
X158500Y341000
X173500Y333500
X183500Y318500
X183500Y298500
X178500Y246000
X188500Y191000
X198500Y201000
X198500Y168500
X183500Y153500
X168500Y163500
X158500Y146000
X141000Y153500
X128500Y153500
X118500Y118500
X108500Y163500
X98500Y146000
X91000Y156000
X93500Y203500
X91000Y238500
X76000Y126000
X93500Y68500
X98500Y111000
X63500Y46000
X53500Y68500
X46000Y201000
X131000Y518500
X128500Y588500
X181000Y696000
X201000Y311000
X206000Y286000
X173500Y58500
X178500Y46000
X186000Y38500
X136000Y98500
X21000Y676000
T03
X19100Y701700
X39100Y701700
X40800Y731600
X40800Y761600
X54400Y760900
X54400Y730900
X66900Y731600
X66900Y761600
X16000Y783500
X16000Y803500
X38900Y369300
X38900Y359300
X48500Y333500
X55200Y314700
X56000Y303500
X56000Y293500
X55300Y281100
X56000Y266000
X56000Y256000
X56400Y244300
X58500Y231000
X58500Y221000
X56200Y206300
X58500Y188500
X58500Y178500
X56000Y146000
X51000Y158500
X51000Y168500
X51000Y183500
X46000Y146000
X38500Y131000
X28500Y131000
X26000Y156000
X26100Y174100
X24700Y191200
X25900Y207900
X26100Y224100
X25900Y245400
X35200Y253600
X35200Y263600
X33200Y287400
X33200Y297400
X36800Y314100
X36800Y324100
X48500Y298500
X56000Y328500
X56000Y338500
X71000Y333500
X75200Y314700
X78500Y328500
X78500Y338500
X83500Y303500
X83500Y293500
X83500Y266000
X83500Y256000
X83500Y231000
X83500Y221000
X81000Y188500
X81000Y178500
X73500Y183500
X76200Y206300
X76000Y226000
X76400Y244300
X76000Y261000
X75300Y281100
X76000Y298500
X94300Y352400
X94300Y362400
X111000Y363500
X111000Y353500
X106000Y306000
X106000Y286000
X103500Y248500
X103500Y238500
X105900Y206300
X105900Y186300
X113500Y238500
X113500Y248500
X126000Y238500
X126000Y228500
X126000Y218500
X126000Y208500
X126000Y198500
X126000Y188500
X126000Y178500
X133500Y138500
X133500Y128500
X126000Y133500
X123500Y106000
X123500Y96000
X123500Y86000
X123500Y76000
X123500Y66000
X123500Y56000
X123500Y46000
X98700Y48000
X98700Y58000
X96000Y86000
X96700Y100100
X98200Y121800
X98200Y131800
X88500Y136000
X78500Y136000
X73500Y148500
X73500Y158500
X76700Y100100
X76000Y86000
X86200Y57600
X86200Y47600
X53500Y98500
X51600Y81700
X43500Y98500
X41600Y81700
X18500Y131000
X16000Y156000
X16100Y174100
X14700Y191200
X15900Y207900
X16100Y224100
X15900Y245400
X16900Y265600
X16900Y285600
X48500Y261000
X51000Y226000
X126000Y271000
X126000Y281000
X126000Y291000
X126000Y301000
X136000Y391000
X136000Y406000
X158500Y371000
X158500Y361000
X166000Y391000
X166000Y406000
X173900Y365600
X173900Y355600
X183500Y391000
X183500Y406000
X173700Y300000
X173500Y286000
X178500Y273500
X178500Y263500
X183500Y286000
X188500Y273500
X188500Y263500
X193700Y300000
X213500Y256000
X213500Y246000
X212100Y220400
X212100Y210400
X213400Y192400
X213400Y182400
X196000Y118500
X196000Y108500
X192300Y132100
X192300Y142100
X187000Y99600
X181000Y81000
X181000Y71000
X177000Y99600
X166000Y98500
X166000Y108500
X166000Y128500
X166000Y138500
X158500Y133500
X153500Y106000
X153500Y96000
X153500Y86000
X153500Y76000
X153500Y66000
X153500Y56000
X153500Y46000
X156000Y178500
X156000Y188500
X156000Y198500
X156000Y208500
X156000Y218500
X156000Y228500
X156000Y238500
X156000Y258500
X156000Y271000
X156000Y281000
X156000Y291000
X156000Y301000
X166000Y258500
X211000Y106000
X211000Y96000
X210300Y82200
X210300Y72200
X193500Y71000
X193500Y81000
X213500Y391000
X213500Y406000
T04
X211000Y428500
X206000Y428500
X201000Y428500
X196000Y428500
X191000Y428500
X186000Y428500
X181000Y428500
X176000Y428500
X171000Y428500
X166000Y428500
X161000Y428500
X156000Y428500
X151000Y428500
X146000Y428500
X141000Y428500
X136000Y428500
X131000Y428500
X126000Y428500
X121000Y428500
X116000Y428500
X111000Y428500
X106000Y428500
X101000Y428500
X96000Y428500
X91000Y428500
X86000Y428500
X81000Y428500
X76000Y428500
X71000Y428500
X66000Y428500
X61000Y428500
X56000Y428500
X51000Y428500
X46000Y428500
X41000Y428500
X36000Y428500
X31000Y428500
X26000Y428500
X21000Y428500
X16000Y428500
X11000Y428500
X6000Y428500
X216000Y428500
X221000Y428500
X226000Y428500
T05
X104000Y403900
X104000Y393900
X94000Y393900
X94000Y403900
X84000Y403900
X84000Y393900
X74000Y393900
X74000Y403900
X64000Y403900
X64000Y393900
X54000Y393900
X54000Y403900
X44000Y403900
X44000Y393900
X34000Y393900
X34000Y403900
T06
X20200Y368600
X20200Y358600
X20200Y348600
X20200Y338600
X19600Y446900
X19600Y456900
X19600Y466900
X19600Y476900
X18600Y505700
X18600Y515700
X18600Y525700
X18600Y535700
X17500Y732600
X17500Y742600
X17500Y752600
X17500Y762600
X17800Y108900
X17800Y98900
X17800Y88900
X17800Y78900
X19300Y49800
X19300Y39800
X19300Y29800
X19300Y19800
X212800Y559300
X212800Y569300
X212800Y579300
X212800Y589300
X214500Y476900
X214500Y466900
X214500Y456900
X214500Y446900
X213800Y374700
X213800Y364700
X213800Y354700
X213800Y344700
X214100Y160500
X214100Y150500
X214100Y140500
X214100Y130500
X214600Y48700
X214600Y38700
X214600Y28700
X214600Y18700
X213200Y770100
X213200Y780100
X213200Y790100
X213200Y800100
T07
X190543Y774341
X180700Y774341
X170857Y774341
X128743Y694141
X118900Y694141
X109057Y694141
X64343Y622541
X54500Y622541
X44657Y622541
X45157Y772941
X55000Y772941
X64843Y772941
X170057Y623541
X179900Y623541
X189743Y623541
T08
X198400Y546700
X199400Y477900
X138500Y477600
X138500Y546000
X79800Y546500
X79700Y477000
T09
X72217Y650100
X101183Y721700
X72717Y800500
X37283Y800500
X36783Y650100
X136617Y721700
X162183Y651100
X197617Y651100
X198417Y801900
X162983Y801900
T10
X180700Y815680
X180700Y786152
X179900Y664880
X179900Y635352
X118900Y705952
X118900Y735480
X55000Y784752
X55000Y814280
X54500Y663880
X54500Y634352
T11
X59800Y566500
X59800Y531500
X59700Y497000
X59700Y462000
X39700Y477000
X39800Y546500
X98500Y546000
X98500Y477600
X118500Y462600
X118500Y497600
X118500Y531000
X118500Y566000
X158400Y546700
X178400Y531700
X179400Y497900
X179400Y462900
X159400Y477900
X178400Y566700
T12
X156000Y446000
X136000Y356000
X76000Y446000
X136000Y783500
X156000Y18500
X76000Y18500
M30
