%
M48
M72
T01C0.02756
T02C0.03200
T03C0.03543
T04C0.03937
T05C0.04000
T06C0.04331
T07C0.06000
T08C0.06299
T09C0.07874
T10C0.10000
T11C0.11024
%
T01
X47200Y119700
X67200Y97200
X87200Y67200
X104700Y87200
X114700Y127200
X127200Y119700
X142200Y164700
X157200Y134700
X157200Y124700
X177200Y87200
X202200Y124700
X172200Y234700
X172200Y299700
X157200Y317200
X139700Y349700
X124700Y339700
X114700Y317200
X127200Y252200
X104700Y234700
X94700Y319700
X84700Y352200
X52200Y299700
X39700Y317200
X32200Y339700
X44700Y352200
X37200Y269700
X29700Y259700
X69700Y192200
X127200Y67200
X224700Y252200
X202200Y427200
X207200Y469700
X214700Y502200
X204700Y512200
X224700Y562200
X209700Y689700
X217200Y764700
X139700Y724700
X139700Y709700
X132200Y639700
X117200Y562200
X119700Y514700
X132200Y502200
X139700Y494700
X92200Y627200
X82200Y627200
X104700Y724700
X104700Y764700
X82200Y752200
X34700Y754700
X34700Y709700
X27200Y624700
T02
X47200Y724700
X47200Y774700
X122200Y774700
X122200Y724700
X154700Y689700
X154700Y639700
X194700Y639700
X194700Y689700
X124700Y372200
X124700Y352200
X127200Y299700
X127200Y289700
X127200Y279700
X127200Y269700
X127200Y234700
X127200Y224700
X127200Y214700
X127200Y204700
X127200Y194700
X127200Y184700
X127200Y174700
X127200Y164700
X127200Y154700
X127200Y107200
X127200Y97200
X127200Y87200
X127200Y77200
X112200Y54700
X92200Y54700
X87200Y82200
X74700Y54700
X67200Y82200
X54700Y54700
X47200Y82200
X47200Y132200
X37200Y149700
X39700Y164700
X39700Y214700
X57200Y214700
X57200Y164700
X57200Y149700
X67200Y132200
X74700Y164700
X74700Y179700
X74700Y202200
X74700Y217200
X94700Y217200
X94700Y202200
X94700Y179700
X94700Y164700
X87200Y132200
X84700Y289700
X84700Y339700
X102200Y352200
X104700Y339700
X102200Y372200
X104700Y289700
X64700Y289700
X64700Y339700
X157200Y299700
X157200Y289700
X157200Y279700
X157200Y269700
X157200Y234700
X157200Y224700
X157200Y214700
X157200Y204700
X157200Y194700
X157200Y184700
X157200Y174700
X157200Y164700
X157200Y154700
X157200Y107200
X157200Y97200
X157200Y87200
X157200Y77200
X177200Y149700
X189700Y149700
X189700Y99700
X190200Y49700
X204200Y49700
X177200Y199700
X184700Y227200
X184700Y277200
X177700Y352200
X191700Y352200
X209700Y321700
X209700Y307700
T03
X207200Y447200
X202200Y447200
X197200Y447200
X192200Y447200
X187200Y447200
X182200Y447200
X177200Y447200
X172200Y447200
X167200Y447200
X162200Y447200
X157200Y447200
X152200Y447200
X147200Y447200
X142200Y447200
X137200Y447200
X132200Y447200
X127200Y447200
X122200Y447200
X117200Y447200
X112200Y447200
X107200Y447200
X102200Y447200
X97200Y447200
X92200Y447200
X87200Y447200
X82200Y447200
X77200Y447200
X72200Y447200
X67200Y447200
X62200Y447200
X57200Y447200
X52200Y447200
X47200Y447200
X42200Y447200
X37200Y447200
X32200Y447200
X27200Y447200
X22200Y447200
X212200Y447200
X217200Y447200
X222200Y447200
X227200Y447200
X232200Y447200
X237200Y447200
T04
X164700Y404700
X164700Y394700
X154700Y394700
X154700Y404700
X144700Y404700
X144700Y394700
X134700Y394700
X134700Y404700
X124700Y404700
X124700Y394700
X114700Y394700
X114700Y404700
X104700Y404700
X104700Y394700
X94700Y394700
X94700Y404700
T05
X32200Y42200
X32200Y52200
X32200Y62200
X32200Y72200
X32200Y397200
X32200Y407200
X32200Y417200
X32200Y427200
X32200Y467200
X32200Y477200
X32200Y487200
X32200Y497200
X29700Y822200
X29700Y832200
X29700Y842200
X29700Y852200
X227200Y852200
X227200Y842200
X227200Y832200
X227200Y822200
X227200Y497200
X227200Y487200
X227200Y477200
X227200Y467200
X227200Y427200
X227200Y417200
X227200Y407200
X227200Y397200
X227200Y72200
X227200Y62200
X227200Y52200
X227200Y42200
T06
X92043Y644641
X82200Y644641
X72357Y644641
X72357Y774641
X82200Y774641
X92043Y774641
X164857Y709641
X174700Y709641
X184543Y709641
T07
X194700Y604700
X194700Y542200
X194700Y479700
X102200Y479700
X102200Y542200
T08
X99917Y672200
X64483Y672200
X64483Y802200
X99917Y802200
X156983Y737200
X192417Y737200
T09
X174700Y750980
X174700Y721452
X82200Y685980
X82200Y656452
X82200Y786452
X82200Y815980
T10
X154700Y604700
X154700Y542200
X154700Y479700
X174700Y464700
X174700Y499700
X174700Y527200
X174700Y562200
X174700Y589700
X174700Y624700
X82200Y562200
X82200Y527200
X82200Y499700
X82200Y464700
X62200Y479700
X62200Y542200
T11
X82200Y429700
X129700Y467200
X174700Y429700
X129700Y42200
X174700Y854700
X82200Y854700
M30
