G75*
%MOIN*%
%OFA0B0*%
%FSLAX25Y25*%
%IPPOS*%
%LPD*%
%AMOC8*
5,1,8,0,0,1.08239X$1,22.5*
%
%ADD10C,0.01100*%
%ADD11C,0.00800*%
D10*
X0187750Y0394195D02*
X0187750Y0398132D01*
X0187750Y0396164D02*
X0193655Y0396164D01*
X0191687Y0394195D01*
X0190703Y0391687D02*
X0190703Y0387750D01*
X0192671Y0400641D02*
X0193655Y0401625D01*
X0193655Y0403594D01*
X0192671Y0404578D01*
X0191687Y0404578D01*
X0187750Y0400641D01*
X0187750Y0404578D01*
X0189718Y0407086D02*
X0187750Y0409055D01*
X0189718Y0411023D01*
X0193655Y0411023D01*
X0193655Y0407086D02*
X0189718Y0407086D01*
D11*
X0096322Y0383165D02*
X0075330Y0383165D01*
X0075330Y0416235D01*
X0097287Y0416235D01*
X0097287Y0410133D01*
X0112113Y0410133D01*
X0112113Y0416235D01*
X0097287Y0416235D01*
X0097259Y0412594D02*
X0079759Y0412594D01*
X0079759Y0386806D01*
X0122287Y0386806D01*
X0122287Y0389267D02*
X0137113Y0389267D01*
X0137113Y0383165D01*
X0156322Y0383165D01*
X0156322Y0384346D01*
X0162145Y0384346D01*
X0162145Y0383165D01*
X0184070Y0383165D01*
X0184070Y0416235D01*
X0162113Y0416235D01*
X0162113Y0410133D01*
X0147287Y0410133D01*
X0147287Y0416235D01*
X0112113Y0416235D01*
X0112121Y0412594D02*
X0147279Y0412594D01*
X0147287Y0416235D02*
X0162113Y0416235D01*
X0162141Y0412594D02*
X0179641Y0412594D01*
X0179641Y0386806D01*
X0137113Y0386806D01*
X0137113Y0383165D02*
X0122287Y0383165D01*
X0122287Y0389267D01*
X0122287Y0383165D02*
X0102145Y0383165D01*
X0102145Y0384346D01*
X0096322Y0384346D01*
X0096322Y0383165D01*
M02*
