%
M48
M72
T01C0.02756
T02C0.03200
T03C0.03543
T04C0.03937
T05C0.04000
T06C0.04331
T07C0.06000
T08C0.06299
T09C0.07874
T10C0.10000
T11C0.11024
%
T01
X27200Y134700
X42200Y162200
X49700Y142200
X59700Y152200
X67200Y127200
X74700Y117200
X89700Y207200
X92200Y222200
X82200Y212200
X77200Y249700
X67200Y252200
X77200Y324700
X44700Y279700
X44700Y252200
X42200Y212200
X27200Y262200
X32200Y299700
X104700Y187200
X104700Y169700
X117200Y127200
X124700Y134700
X132200Y129700
X124700Y97200
X117200Y87200
X109700Y117200
X109700Y42200
X154700Y129700
X159700Y152200
X159700Y187200
X162200Y217200
X164700Y229700
X159700Y264700
X137200Y217200
X167200Y97200
X177200Y69700
X184700Y52200
X167200Y52200
X174700Y177200
X187200Y187200
X207200Y214700
X224700Y179700
X212200Y122200
X214700Y114700
X224700Y259700
X202200Y427200
X207200Y469700
X214700Y502200
X204700Y512200
X224700Y562200
X209700Y689700
X217200Y764700
X139700Y724700
X139700Y709700
X132200Y639700
X117200Y562200
X119700Y514700
X132200Y502200
X139700Y494700
X92200Y627200
X82200Y627200
X104700Y724700
X104700Y764700
X82200Y752200
X34700Y754700
X34700Y709700
X27200Y624700
X42200Y54700
T02
X62200Y77200
X72200Y77200
X72200Y64700
X72200Y44700
X82200Y87200
X87200Y97200
X87200Y107200
X92200Y87200
X92200Y64700
X92200Y54700
X74700Y97200
X74700Y107200
X77200Y162200
X77200Y174700
X77200Y187200
X74700Y199700
X87200Y187200
X87200Y174700
X87200Y162200
X94700Y199700
X99700Y162200
X109700Y162200
X117200Y177200
X117200Y187200
X117200Y197200
X117200Y207200
X117200Y217200
X117200Y227200
X117200Y237200
X117200Y247200
X117200Y257200
X127200Y294700
X127200Y304700
X127200Y314700
X127200Y324700
X132200Y339700
X139700Y359700
X139700Y372200
X124700Y372200
X124700Y359700
X99700Y349700
X94700Y359700
X94700Y372200
X79700Y349700
X64700Y329700
X64700Y319700
X62200Y342200
X62200Y352200
X52200Y329700
X52200Y319700
X39700Y319700
X39700Y329700
X57200Y287200
X57200Y274700
X57200Y262200
X57200Y242200
X57200Y232200
X49700Y222200
X44700Y232200
X44700Y242200
X49700Y202200
X67200Y262200
X67200Y274700
X67200Y287200
X79700Y239700
X92200Y272200
X92200Y282200
X97200Y294700
X97200Y304700
X97200Y314700
X97200Y324700
X99700Y239700
X109700Y107200
X109700Y97200
X109700Y87200
X109700Y77200
X139700Y77200
X139700Y87200
X139700Y97200
X139700Y107200
X139700Y59700
X149700Y59700
X149700Y44700
X159700Y44700
X167200Y107200
X174700Y152200
X184700Y152200
X194700Y167200
X204700Y167200
X199700Y199700
X192200Y214700
X197200Y232200
X187200Y244700
X187200Y259700
X177200Y259700
X177200Y244700
X177200Y232200
X182200Y214700
X179700Y199700
X162200Y294700
X162200Y304700
X162200Y317200
X162200Y327200
X169700Y359700
X169700Y372200
X152200Y339700
X147200Y257200
X147200Y247200
X147200Y237200
X147200Y227200
X147200Y217200
X147200Y207200
X147200Y197200
X147200Y187200
X147200Y177200
X187200Y107200
X194700Y82200
X194700Y72200
X194700Y42200
X184700Y42200
X199700Y337200
X199700Y347200
X214700Y367200
X214700Y377200
X194700Y639700
X194700Y689700
X154700Y689700
X154700Y639700
X122200Y724700
X122200Y774700
X47200Y774700
X47200Y724700
T03
X47200Y447200
X42200Y447200
X37200Y447200
X32200Y447200
X27200Y447200
X22200Y447200
X52200Y447200
X57200Y447200
X62200Y447200
X67200Y447200
X72200Y447200
X77200Y447200
X82200Y447200
X87200Y447200
X92200Y447200
X97200Y447200
X102200Y447200
X107200Y447200
X112200Y447200
X117200Y447200
X122200Y447200
X127200Y447200
X132200Y447200
X137200Y447200
X142200Y447200
X147200Y447200
X152200Y447200
X157200Y447200
X162200Y447200
X167200Y447200
X172200Y447200
X177200Y447200
X182200Y447200
X187200Y447200
X192200Y447200
X197200Y447200
X202200Y447200
X207200Y447200
X212200Y447200
X217200Y447200
X222200Y447200
X227200Y447200
X232200Y447200
X237200Y447200
T04
X164700Y404700
X164700Y394700
X154700Y394700
X154700Y404700
X144700Y404700
X144700Y394700
X134700Y394700
X134700Y404700
X124700Y404700
X124700Y394700
X114700Y394700
X114700Y404700
X104700Y404700
X104700Y394700
X94700Y394700
X94700Y404700
T05
X32200Y42200
X32200Y52200
X32200Y62200
X32200Y72200
X32200Y397200
X32200Y407200
X32200Y417200
X32200Y427200
X32200Y467200
X32200Y477200
X32200Y487200
X32200Y497200
X29700Y822200
X29700Y832200
X29700Y842200
X29700Y852200
X227200Y852200
X227200Y842200
X227200Y832200
X227200Y822200
X227200Y497200
X227200Y487200
X227200Y477200
X227200Y467200
X227200Y427200
X227200Y417200
X227200Y407200
X227200Y397200
X227200Y72200
X227200Y62200
X227200Y52200
X227200Y42200
T06
X92043Y644641
X82200Y644641
X72357Y644641
X72357Y774641
X82200Y774641
X92043Y774641
X164857Y709641
X174700Y709641
X184543Y709641
T07
X194700Y604700
X194700Y542200
X194700Y479700
X102200Y479700
X102200Y542200
T08
X99917Y672200
X64483Y672200
X64483Y802200
X99917Y802200
X156983Y737200
X192417Y737200
T09
X174700Y750980
X174700Y721452
X82200Y685980
X82200Y656452
X82200Y786452
X82200Y815980
T10
X154700Y604700
X154700Y542200
X154700Y479700
X174700Y464700
X174700Y499700
X174700Y527200
X174700Y562200
X174700Y589700
X174700Y624700
X82200Y562200
X82200Y527200
X82200Y499700
X82200Y464700
X62200Y479700
X62200Y542200
T11
X82200Y429700
X129700Y467200
X174700Y429700
X129700Y42200
X174700Y854700
X82200Y854700
M30
