%
M48
M72
T01C0.02756
T02C0.03200
T03C0.03543
T04C0.03937
T05C0.04000
T06C0.04331
T07C0.06000
T08C0.06299
T09C0.07874
T10C0.10000
T11C0.11024
%
T01
X44700Y152200
X54700Y109700
X62200Y132200
X64700Y162200
X64700Y172200
X72200Y182200
X72200Y152200
X79700Y122200
X94700Y122200
X102200Y157200
X102200Y232200
X117200Y279700
X124700Y244700
X132200Y212200
X137200Y234700
X137200Y254700
X129700Y182200
X129700Y162200
X104700Y57200
X79700Y44700
X62200Y37200
X32200Y194700
X44700Y234700
X57200Y204700
X82200Y279700
X94700Y307200
X119700Y334700
X84700Y459700
X104700Y497200
X104700Y567200
X87200Y649700
X89700Y682200
X107200Y724700
X97200Y754700
X97200Y832200
X57200Y754700
X144700Y752200
X164700Y724700
X172200Y832200
X172200Y299700
X157200Y299700
X159700Y199700
X169700Y109700
T02
X167200Y167200
X167200Y177200
X167200Y189700
X167200Y209700
X164700Y227200
X164700Y237200
X164700Y254700
X162200Y274700
X162200Y284700
X154700Y254700
X149700Y274700
X149700Y284700
X139700Y324700
X139700Y334700
X139700Y352200
X139700Y364700
X137200Y284700
X137200Y274700
X124700Y274700
X124700Y284700
X119700Y317200
X109700Y352200
X109700Y364700
X102200Y332200
X99700Y317200
X94700Y352200
X94700Y364700
X82200Y332200
X87200Y269700
X87200Y254700
X87200Y234700
X84700Y212200
X84700Y202200
X84700Y192200
X84700Y182200
X84700Y172200
X84700Y162200
X84700Y152200
X84700Y142200
X92200Y99700
X92200Y79700
X87200Y64700
X97200Y64700
X114700Y64700
X114700Y89700
X114700Y99700
X122200Y69700
X122200Y59700
X129700Y122200
X129700Y142200
X137200Y167200
X137200Y177200
X142200Y192200
X142200Y207200
X142200Y227200
X152200Y192200
X152200Y177200
X152200Y167200
X144700Y142200
X144700Y122200
X139700Y72200
X139700Y57200
X139700Y34700
X149700Y34700
X149700Y57200
X149700Y72200
X114700Y142200
X114700Y152200
X114700Y162200
X114700Y172200
X114700Y182200
X114700Y192200
X114700Y202200
X114700Y212200
X107200Y244700
X107200Y254700
X107200Y269700
X77200Y257200
X77200Y247200
X72200Y224700
X72200Y214700
X57200Y192200
X57200Y182200
X54700Y162200
X47200Y172200
X47200Y182200
X44700Y194700
X44700Y204700
X52200Y214700
X52200Y224700
X49700Y257200
X39700Y257200
X29700Y257200
X44700Y162200
X52200Y84700
X52200Y64700
X72200Y64700
X72200Y84700
X64700Y322200
X64700Y332200
X64700Y352200
X64700Y364700
X32200Y537200
X32200Y547200
X29700Y619700
X29700Y629700
X29700Y644700
X29700Y674700
X29700Y717200
X29700Y747200
X47200Y734700
X47200Y764700
X67200Y764700
X67200Y734700
X107200Y687200
X107200Y657200
X134700Y734700
X134700Y764700
X154700Y764700
X154700Y734700
X169700Y667200
X169700Y637200
X169700Y602200
X169700Y572200
X169700Y539700
X169700Y509700
X174700Y254700
T03
X174700Y439700
X169700Y439700
X164700Y439700
X159700Y439700
X154700Y439700
X149700Y439700
X144700Y439700
X139700Y439700
X134700Y439700
X129700Y439700
X124700Y439700
X119700Y439700
X114700Y439700
X109700Y439700
X104700Y439700
X99700Y439700
X94700Y439700
X89700Y439700
X84700Y439700
X79700Y439700
X74700Y439700
X69700Y439700
X64700Y439700
X59700Y439700
X54700Y439700
X49700Y439700
X44700Y439700
X39700Y439700
X34700Y439700
X29700Y439700
X24700Y439700
X179700Y439700
T04
X134700Y399700
X134700Y389700
X124700Y389700
X124700Y399700
X114700Y399700
X114700Y389700
X104700Y389700
X104700Y399700
X94700Y399700
X94700Y389700
X84700Y389700
X84700Y399700
X74700Y399700
X74700Y389700
X64700Y389700
X64700Y399700
T05
X32200Y147200
X32200Y157200
X32200Y167200
X32200Y177200
X34700Y64700
X34700Y54700
X34700Y44700
X34700Y34700
X34700Y459700
X34700Y469700
X34700Y479700
X34700Y489700
X34700Y567200
X34700Y577200
X34700Y587200
X34700Y597200
X167200Y737200
X167200Y747200
X167200Y757200
X167200Y767200
X169700Y489700
X169700Y479700
X169700Y469700
X169700Y459700
X167200Y342200
X167200Y332200
X167200Y322200
X167200Y312200
X169700Y64700
X169700Y54700
X169700Y44700
X169700Y34700
T06
X157043Y667141
X147200Y667141
X137357Y667141
X137357Y777141
X147200Y777141
X157043Y777141
X67043Y777141
X57200Y777141
X47357Y777141
X47357Y667141
X57200Y667141
X67043Y667141
T07
X89700Y607200
X89700Y547200
X89700Y487200
X157200Y487200
X157200Y547200
X157200Y607200
T08
X164917Y694700
X164917Y804700
X129483Y804700
X129483Y694700
X74917Y694700
X74917Y804700
X39483Y804700
X39483Y694700
T09
X57200Y708480
X57200Y678952
X57200Y788952
X57200Y818480
X147200Y818480
X147200Y788952
X147200Y708480
X147200Y678952
T10
X137200Y627200
X137200Y592200
X137200Y567200
X137200Y532200
X137200Y507200
X137200Y472200
X117200Y487200
X117200Y547200
X117200Y607200
X69700Y592200
X69700Y567200
X69700Y532200
X69700Y507200
X69700Y472200
X49700Y487200
X49700Y547200
X49700Y607200
X69700Y627200
T11
X99700Y459700
X64700Y422200
X134700Y422200
X99700Y34700
X64700Y847200
X134700Y847200
M30
