G75*
%MOIN*%
%OFA0B0*%
%FSLAX25Y25*%
%IPPOS*%
%LPD*%
%AMOC8*
5,1,8,0,0,1.08239X$1,22.5*
%
%ADD10C,0.04343*%
%ADD11C,0.11824*%
%ADD12R,0.09800X0.09800*%
%ADD13R,0.14800X0.14800*%
%ADD14OC8,0.06000*%
%ADD15C,0.07400*%
%ADD16R,0.11824X0.11824*%
%ADD17C,0.08674*%
%ADD18C,0.06800*%
%ADD19C,0.06737*%
%ADD20OC8,0.07100*%
%ADD21C,0.07100*%
%ADD22C,0.06000*%
%ADD23C,0.05156*%
D10*
X0024700Y0439700D03*
X0029700Y0439700D03*
X0034700Y0439700D03*
X0039700Y0439700D03*
X0044700Y0439700D03*
X0049700Y0439700D03*
X0054700Y0439700D03*
X0059700Y0439700D03*
X0064700Y0439700D03*
X0069700Y0439700D03*
X0074700Y0439700D03*
X0079700Y0439700D03*
X0084700Y0439700D03*
X0089700Y0439700D03*
X0094700Y0439700D03*
X0099700Y0439700D03*
X0104700Y0439700D03*
X0109700Y0439700D03*
X0114700Y0439700D03*
X0119700Y0439700D03*
X0124700Y0439700D03*
X0129700Y0439700D03*
X0134700Y0439700D03*
X0139700Y0439700D03*
X0144700Y0439700D03*
X0149700Y0439700D03*
X0154700Y0439700D03*
X0159700Y0439700D03*
X0164700Y0439700D03*
X0169700Y0439700D03*
X0174700Y0439700D03*
X0179700Y0439700D03*
D11*
X0134700Y0422200D03*
X0099700Y0459700D03*
X0064700Y0422200D03*
X0099700Y0034700D03*
X0064700Y0847200D03*
X0134700Y0847200D03*
D12*
X0157200Y0607200D03*
X0157200Y0547200D03*
X0157200Y0487200D03*
X0089700Y0487200D03*
X0089700Y0547200D03*
X0089700Y0607200D03*
D13*
X0069700Y0592200D03*
X0069700Y0567200D03*
X0069700Y0532200D03*
X0069700Y0507200D03*
X0069700Y0472200D03*
X0049700Y0487200D03*
X0049700Y0547200D03*
X0049700Y0607200D03*
X0069700Y0627200D03*
X0117200Y0607200D03*
X0117200Y0547200D03*
X0117200Y0487200D03*
X0137200Y0472200D03*
X0137200Y0507200D03*
X0137200Y0532200D03*
X0137200Y0567200D03*
X0137200Y0592200D03*
X0137200Y0627200D03*
D14*
X0134700Y0734700D03*
X0134700Y0764700D03*
X0154700Y0764700D03*
X0154700Y0734700D03*
X0169700Y0667200D03*
X0169700Y0637200D03*
X0169700Y0602200D03*
X0169700Y0572200D03*
X0169700Y0539700D03*
X0169700Y0509700D03*
X0119700Y0317200D03*
X0124700Y0284700D03*
X0124700Y0274700D03*
X0137200Y0274700D03*
X0137200Y0284700D03*
X0149700Y0284700D03*
X0149700Y0274700D03*
X0162200Y0274700D03*
X0162200Y0284700D03*
X0164700Y0237200D03*
X0164700Y0227200D03*
X0167200Y0209700D03*
X0167200Y0189700D03*
X0167200Y0177200D03*
X0167200Y0167200D03*
X0152200Y0167200D03*
X0152200Y0177200D03*
X0152200Y0192200D03*
X0142200Y0192200D03*
X0142200Y0207200D03*
X0142200Y0227200D03*
X0137200Y0177200D03*
X0137200Y0167200D03*
X0129700Y0142200D03*
X0129700Y0122200D03*
X0139700Y0072200D03*
X0139700Y0057200D03*
X0149700Y0057200D03*
X0149700Y0072200D03*
X0144700Y0122200D03*
X0144700Y0142200D03*
X0122200Y0069700D03*
X0122200Y0059700D03*
X0114700Y0064700D03*
X0114700Y0089700D03*
X0114700Y0099700D03*
X0097200Y0064700D03*
X0092200Y0079700D03*
X0087200Y0064700D03*
X0092200Y0099700D03*
X0072200Y0084700D03*
X0072200Y0064700D03*
X0052200Y0064700D03*
X0052200Y0084700D03*
X0054700Y0162200D03*
X0057200Y0182200D03*
X0057200Y0192200D03*
X0052200Y0214700D03*
X0052200Y0224700D03*
X0044700Y0204700D03*
X0044700Y0194700D03*
X0047200Y0182200D03*
X0047200Y0172200D03*
X0044700Y0162200D03*
X0072200Y0214700D03*
X0072200Y0224700D03*
X0077200Y0247200D03*
X0077200Y0257200D03*
X0087200Y0254700D03*
X0087200Y0269700D03*
X0087200Y0234700D03*
X0107200Y0244700D03*
X0107200Y0254700D03*
X0107200Y0269700D03*
X0099700Y0317200D03*
X0102200Y0332200D03*
X0082200Y0332200D03*
X0029700Y0644700D03*
X0029700Y0674700D03*
X0029700Y0717200D03*
X0029700Y0747200D03*
X0047200Y0734700D03*
X0047200Y0764700D03*
X0067200Y0764700D03*
X0067200Y0734700D03*
X0107200Y0687200D03*
X0107200Y0657200D03*
D15*
X0137357Y0667141D03*
X0147200Y0667141D03*
X0157043Y0667141D03*
X0157043Y0777141D03*
X0147200Y0777141D03*
X0137357Y0777141D03*
X0067043Y0777141D03*
X0057200Y0777141D03*
X0047357Y0777141D03*
X0047357Y0667141D03*
X0057200Y0667141D03*
X0067043Y0667141D03*
D16*
X0074917Y0694700D03*
X0074917Y0804700D03*
X0039483Y0804700D03*
X0039483Y0694700D03*
X0129483Y0694700D03*
X0129483Y0804700D03*
X0164917Y0804700D03*
X0164917Y0694700D03*
D17*
X0147200Y0708480D03*
X0147200Y0678952D03*
X0147200Y0788952D03*
X0147200Y0818480D03*
X0057200Y0818480D03*
X0057200Y0788952D03*
X0057200Y0708480D03*
X0057200Y0678952D03*
D18*
X0037700Y0034700D02*
X0031700Y0034700D01*
X0031700Y0044700D02*
X0037700Y0044700D01*
X0037700Y0054700D02*
X0031700Y0054700D01*
X0031700Y0064700D02*
X0037700Y0064700D01*
X0035200Y0147200D02*
X0029200Y0147200D01*
X0029200Y0157200D02*
X0035200Y0157200D01*
X0035200Y0167200D02*
X0029200Y0167200D01*
X0029200Y0177200D02*
X0035200Y0177200D01*
X0037700Y0459700D02*
X0031700Y0459700D01*
X0031700Y0469700D02*
X0037700Y0469700D01*
X0037700Y0479700D02*
X0031700Y0479700D01*
X0031700Y0489700D02*
X0037700Y0489700D01*
X0037700Y0567200D02*
X0031700Y0567200D01*
X0031700Y0577200D02*
X0037700Y0577200D01*
X0037700Y0587200D02*
X0031700Y0587200D01*
X0031700Y0597200D02*
X0037700Y0597200D01*
X0164200Y0737200D02*
X0170200Y0737200D01*
X0170200Y0747200D02*
X0164200Y0747200D01*
X0164200Y0757200D02*
X0170200Y0757200D01*
X0170200Y0767200D02*
X0164200Y0767200D01*
X0166700Y0489700D02*
X0172700Y0489700D01*
X0172700Y0479700D02*
X0166700Y0479700D01*
X0166700Y0469700D02*
X0172700Y0469700D01*
X0172700Y0459700D02*
X0166700Y0459700D01*
X0164200Y0342200D02*
X0170200Y0342200D01*
X0170200Y0332200D02*
X0164200Y0332200D01*
X0164200Y0322200D02*
X0170200Y0322200D01*
X0170200Y0312200D02*
X0164200Y0312200D01*
X0166700Y0064700D02*
X0172700Y0064700D01*
X0172700Y0054700D02*
X0166700Y0054700D01*
X0166700Y0044700D02*
X0172700Y0044700D01*
X0172700Y0034700D02*
X0166700Y0034700D01*
D19*
X0134700Y0389700D03*
X0134700Y0399700D03*
X0124700Y0399700D03*
X0124700Y0389700D03*
X0114700Y0389700D03*
X0114700Y0399700D03*
X0104700Y0399700D03*
X0104700Y0389700D03*
X0094700Y0389700D03*
X0094700Y0399700D03*
X0084700Y0399700D03*
X0084700Y0389700D03*
X0074700Y0389700D03*
X0074700Y0399700D03*
X0064700Y0399700D03*
X0064700Y0389700D03*
D20*
X0064700Y0322200D03*
X0032200Y0537200D03*
X0029700Y0629700D03*
X0139700Y0334700D03*
X0139700Y0034700D03*
D21*
X0149700Y0034700D03*
X0139700Y0324700D03*
X0064700Y0332200D03*
X0032200Y0547200D03*
X0029700Y0619700D03*
D22*
X0062100Y0364700D02*
X0067300Y0364700D01*
X0067300Y0352200D02*
X0062100Y0352200D01*
X0049700Y0259800D02*
X0049700Y0254600D01*
X0039700Y0254600D02*
X0039700Y0259800D01*
X0029700Y0259800D02*
X0029700Y0254600D01*
X0082100Y0212200D02*
X0087300Y0212200D01*
X0087300Y0202200D02*
X0082100Y0202200D01*
X0082100Y0192200D02*
X0087300Y0192200D01*
X0087300Y0182200D02*
X0082100Y0182200D01*
X0082100Y0172200D02*
X0087300Y0172200D01*
X0087300Y0162200D02*
X0082100Y0162200D01*
X0082100Y0152200D02*
X0087300Y0152200D01*
X0087300Y0142200D02*
X0082100Y0142200D01*
X0112100Y0142200D02*
X0117300Y0142200D01*
X0117300Y0152200D02*
X0112100Y0152200D01*
X0112100Y0162200D02*
X0117300Y0162200D01*
X0117300Y0172200D02*
X0112100Y0172200D01*
X0112100Y0182200D02*
X0117300Y0182200D01*
X0117300Y0192200D02*
X0112100Y0192200D01*
X0112100Y0202200D02*
X0117300Y0202200D01*
X0117300Y0212200D02*
X0112100Y0212200D01*
X0112300Y0352200D02*
X0107100Y0352200D01*
X0107100Y0364700D02*
X0112300Y0364700D01*
X0097300Y0364700D02*
X0092100Y0364700D01*
X0092100Y0352200D02*
X0097300Y0352200D01*
X0137100Y0352200D02*
X0142300Y0352200D01*
X0142300Y0364700D02*
X0137100Y0364700D01*
X0154700Y0257300D02*
X0154700Y0252100D01*
X0164700Y0252100D02*
X0164700Y0257300D01*
X0174700Y0257300D02*
X0174700Y0252100D01*
D23*
X0172200Y0299700D03*
X0157200Y0299700D03*
X0137200Y0254700D03*
X0137200Y0234700D03*
X0132200Y0212200D03*
X0129700Y0182200D03*
X0129700Y0162200D03*
X0124700Y0244700D03*
X0117200Y0279700D03*
X0119700Y0334700D03*
X0094700Y0307200D03*
X0082200Y0279700D03*
X0102200Y0232200D03*
X0102200Y0157200D03*
X0094700Y0122200D03*
X0104700Y0057200D03*
X0079700Y0044700D03*
X0079700Y0122200D03*
X0072200Y0152200D03*
X0072200Y0182200D03*
X0064700Y0172200D03*
X0064700Y0162200D03*
X0062200Y0132200D03*
X0054700Y0109700D03*
X0044700Y0152200D03*
X0032200Y0194700D03*
X0044700Y0234700D03*
X0057200Y0204700D03*
X0062200Y0037200D03*
X0084700Y0459700D03*
X0104700Y0497200D03*
X0104700Y0567200D03*
X0087200Y0649700D03*
X0089700Y0682200D03*
X0107200Y0724700D03*
X0097200Y0754700D03*
X0097200Y0832200D03*
X0057200Y0754700D03*
X0144700Y0752200D03*
X0164700Y0724700D03*
X0172200Y0832200D03*
X0159700Y0199700D03*
X0169700Y0109700D03*
M02*
