G75*
%MOIN*%
%OFA0B0*%
%FSLAX25Y25*%
%IPPOS*%
%LPD*%
%AMOC8*
5,1,8,0,0,1.08239X$1,22.5*
%
%ADD10C,0.01100*%
%ADD11C,0.00800*%
D10*
X0157750Y0389195D02*
X0157750Y0393132D01*
X0157750Y0391164D02*
X0163655Y0391164D01*
X0161687Y0389195D01*
X0160703Y0386687D02*
X0160703Y0382750D01*
X0162671Y0395641D02*
X0163655Y0396625D01*
X0163655Y0398594D01*
X0162671Y0399578D01*
X0161687Y0399578D01*
X0157750Y0395641D01*
X0157750Y0399578D01*
X0159718Y0402086D02*
X0157750Y0404055D01*
X0159718Y0406023D01*
X0163655Y0406023D01*
X0163655Y0402086D02*
X0159718Y0402086D01*
D11*
X0066322Y0378165D02*
X0045330Y0378165D01*
X0045330Y0411235D01*
X0067287Y0411235D01*
X0067287Y0405133D01*
X0082113Y0405133D01*
X0082113Y0411235D01*
X0067287Y0411235D01*
X0067259Y0407594D02*
X0049759Y0407594D01*
X0049759Y0381806D01*
X0092287Y0381806D01*
X0092287Y0384267D02*
X0107113Y0384267D01*
X0107113Y0378165D01*
X0126322Y0378165D01*
X0126322Y0379346D01*
X0132145Y0379346D01*
X0132145Y0378165D01*
X0154070Y0378165D01*
X0154070Y0411235D01*
X0132113Y0411235D01*
X0132113Y0405133D01*
X0117287Y0405133D01*
X0117287Y0411235D01*
X0082113Y0411235D01*
X0082121Y0407594D02*
X0117279Y0407594D01*
X0117287Y0411235D02*
X0132113Y0411235D01*
X0132141Y0407594D02*
X0149641Y0407594D01*
X0149641Y0381806D01*
X0107113Y0381806D01*
X0107113Y0378165D02*
X0092287Y0378165D01*
X0092287Y0384267D01*
X0092287Y0378165D02*
X0072145Y0378165D01*
X0072145Y0379346D01*
X0066322Y0379346D01*
X0066322Y0378165D01*
M02*
